<svg xmlns="http://www.w3.org/2000/svg" xmlns:xlink="http://www.w3.org/1999/xlink" width="500" zoomAndPan="magnify" viewBox="0 0 375 374.999991" height="500" preserveAspectRatio="xMidYMid meet" version="1.2"><defs><clipPath id="487bf5c15d"><path d="M 0 367.140625 L 4.152344 367.140625 L 4.152344 375 L 0 375 Z M 0 367.140625 "/></clipPath></defs><g id="c35a80d82b"><g clip-rule="nonzero" clip-path="url(#487bf5c15d)"><path style=" stroke:none;fill-rule:nonzero;fill:#ffdd33;fill-opacity:1;" d="M -6.359375 437.300781 L -55.496094 437.300781 C -61.292969 437.300781 -66.007812 432.585938 -66.007812 426.789062 L -66.007812 377.652344 C -66.007812 371.855469 -61.292969 367.140625 -55.496094 367.140625 L -6.359375 367.140625 C -0.5625 367.140625 4.152344 371.855469 4.152344 377.652344 L 4.152344 426.789062 C 4.152344 432.585938 -0.5625 437.300781 -6.359375 437.300781 Z M -6.359375 437.300781 "/></g><path style=" stroke:none;fill-rule:nonzero;fill:#000000;fill-opacity:1;" d="M 344.34375 308.03125 L 210.660156 196.125 L 242.089844 159.414062 L 252.269531 169.144531 C 270.863281 187.277344 287.242188 163.394531 287.242188 163.394531 L 355.855469 76.257812 L 350.984375 71.390625 L 272.191406 149.238281 L 265.109375 142.164062 L 336.820312 57.679688 L 332.835938 53.699219 L 254.039062 131.105469 L 246.957031 124.46875 L 322.65625 43.96875 L 318.671875 39.988281 L 235.890625 113.410156 L 228.808594 106.335938 L 304.949219 26.277344 L 300.078125 21.410156 L 213.757812 92.179688 C 213.757812 92.179688 190.296875 108.988281 208.890625 127.125 L 219.070312 136.855469 L 180.558594 170.914062 L 174.804688 166.046875 L 184.984375 155.433594 L 50.414062 24.0625 C 16.328125 0.179688 26.953125 47.949219 26.953125 47.949219 C 46.429688 155.875 143.375 198.777344 143.375 198.777344 L 150.457031 191.703125 L 152.667969 189.492188 L 155.769531 193.027344 L 32.707031 302.722656 C 11.015625 317.761719 31.820312 346.070312 34.035156 348.722656 C 36.691406 350.492188 65.464844 370.839844 80.070312 349.167969 L 184.984375 226.203125 L 297.863281 355.359375 C 311.144531 374.820312 339.035156 353.589844 341.246094 351.820312 C 343.460938 348.722656 364.265625 320.859375 344.34375 308.03125 Z M 344.34375 308.03125 "/></g></svg>