<svg xmlns="http://www.w3.org/2000/svg" xmlns:xlink="http://www.w3.org/1999/xlink" width="500" zoomAndPan="magnify" viewBox="0 0 375 374.999991" height="500" preserveAspectRatio="xMidYMid meet" version="1.2"><defs><clipPath id="5e1ab9807b"><path d="M 0 367.140625 L 4.152344 367.140625 L 4.152344 375 L 0 375 Z M 0 367.140625 "/></clipPath><clipPath id="f4898fd056"><path d="M 6.09375 2 L 369 2 L 369 375 L 6.09375 375 Z M 6.09375 2 "/></clipPath></defs><g id="c2fea73175"><g clip-rule="nonzero" clip-path="url(#5e1ab9807b)"><path style=" stroke:none;fill-rule:nonzero;fill:#ffdd33;fill-opacity:1;" d="M -6.359375 437.300781 L -55.496094 437.300781 C -61.292969 437.300781 -66.007812 432.585938 -66.007812 426.789062 L -66.007812 377.652344 C -66.007812 371.855469 -61.292969 367.140625 -55.496094 367.140625 L -6.359375 367.140625 C -0.5625 367.140625 4.152344 371.855469 4.152344 377.652344 L 4.152344 426.789062 C 4.152344 432.585938 -0.5625 437.300781 -6.359375 437.300781 Z M -6.359375 437.300781 "/></g><g clip-rule="nonzero" clip-path="url(#f4898fd056)"><path style=" stroke:none;fill-rule:nonzero;fill:#000000;fill-opacity:1;" d="M 253.003906 374.9375 L 328.914062 374.9375 C 350.777344 374.9375 368.667969 357.179688 368.667969 335.328125 L 368.667969 148.199219 C 368.667969 135.78125 362.703125 123.988281 352.765625 116.660156 L 211.382812 10.367188 C 197.347656 -0.0625 177.839844 -0.0625 163.804688 10.367188 L 22.421875 116.535156 C 12.484375 123.988281 6.519531 135.78125 6.519531 148.199219 L 6.519531 335.328125 C 6.519531 357.179688 24.410156 374.9375 46.273438 374.9375 L 122.183594 374.9375 C 129.140625 374.9375 134.605469 369.472656 134.605469 362.519531 L 134.605469 291.496094 C 134.605469 262.3125 158.460938 238.597656 187.65625 238.597656 C 201.695312 238.597656 214.988281 244.183594 225.050781 254.117188 C 234.988281 264.050781 240.582031 277.339844 240.582031 291.496094 L 240.582031 362.519531 C 240.582031 369.472656 246.046875 374.9375 253.003906 374.9375 Z M 253.003906 374.9375 "/></g></g></svg>